# xmcd
#
# Track frame offsets:
# 150
# 18079
# 48987
# 69260
# 93086
# 109571
# 138539
# 159421
# 175552
# 197262
# 222847
# 238586
#
# Disc length: 3416 seconds
#
#
# Revision: 0
# Processed by: cddbd v1.5.2PL0 Copyright (c) Steve Scherf et al.
# Submitted via: FreeRIP 2.944 
#
DISCID=8a0d560c
DTITLE=Jaël - Acoustic
DYEAR=2016
DGENRE=Acoustic
TTITLE0=Free Fall
TTITLE1=Open Skies
TTITLE2=Censor
TTITLE3=Shuffle the cards
TTITLE4=Driving with you
TTITLE5=Truly you
TTITLE6=Rumour
TTITLE7=This life is a jungle
TTITLE8=In love again
TTITLE9=Godmother
TTITLE10=Now you are mine
TTITLE11=Sleeping on a butterfly
EXTD=
EXTT0=
EXTT1=
EXTT2=
EXTT3=
EXTT4=
EXTT5=
EXTT6=
EXTT7=
EXTT8=
EXTT9=
EXTT10=
EXTT11=
PLAYORDER=
